
<svg width="145px" height="22px" viewBox="0 0 145 22" version="1.1" xmlns="http://www.w3.org/2000/svg" xmlns:xlink="http://www.w3.org/1999/xlink">
    <g id="Page-1" stroke="none" stroke-width="1" fill="none" fill-rule="evenodd">
        <g id="logo-kustomer">
            <path d="M80.1673529,14.3903294 L72.9338824,14.3903294 C72.8292942,14.3899327 72.7325058,14.445586 72.6802353,14.5361765 C72.6277903,14.6274919 72.6277903,14.7397905 72.6802353,14.8311059 C72.7325176,14.9242824 74.0099412,17.1209176 76.5523647,17.1209176 C79.0951765,17.1209176 80.3687176,14.9244118 80.4211294,14.8311059 C80.4704288,14.7385688 80.4687673,14.6272017 80.4167294,14.5361765 C80.3655896,14.4464768 80.2704757,14.3908786 80.1672235,14.3903294 L80.1673529,14.3903294 Z M80.2840824,6.63067059 C80.6183529,6.63067059 80.8845529,6.35657647 80.8845529,6.02101176 C80.8845529,5.68363529 80.6183529,5.41148235 80.2840824,5.41148235 C78.8615882,5.41148235 77.7090471,6.57605882 77.7090471,8.00605882 L77.7090471,10.9948235 C77.7090471,11.3301294 77.9791294,11.6022824 78.3136588,11.6022824 L80.2840824,11.6022824 C80.6183529,11.6022824 80.8845529,11.3301294 80.8845529,10.9948235 L80.8845529,9.00576471 C80.8845529,8.66864706 80.6183529,8.39623529 80.2840824,8.39623529 L78.9101176,8.39623529 L78.9101176,8.00618824 C78.9101176,7.25055294 79.5265059,6.6308 80.2842118,6.6308 L80.2840824,6.63067059 Z M72.8131412,11.6024118 C72.4788706,11.6024118 72.2126706,11.3302588 72.2126706,10.9949529 L72.2126706,8.00605882 C72.2126706,6.57605882 73.3650824,5.41148235 74.7877059,5.41148235 C75.1222353,5.41148235 75.3920588,5.68363529 75.3920588,6.02101176 C75.3920588,6.35657647 75.1222353,6.63054118 74.7877059,6.63054118 C74.0341412,6.63054118 73.4177529,7.25042353 73.4177529,8.00605882 L73.4177529,8.39623529 L74.7877059,8.39623529 C75.1222353,8.39623529 75.3920588,8.66851765 75.3920588,9.00563529 L75.3920588,10.9949529 C75.3920588,11.3302588 75.1222353,11.6024118 74.7877059,11.6024118 L72.8131412,11.6024118 Z M1.3178,1.22811765 C0.590505882,1.22811765 0,1.82134118 0,2.55484706 L0,19.8921412 C0,20.6259059 0.590505882,21.219 1.3178,21.219 C2.04315294,21.219 2.63145882,20.6260353 2.63145882,19.8921412 L2.63145882,2.55484706 C2.63145882,1.82134118 2.04315294,1.22811765 1.3178,1.22811765 Z M132.716941,3.87963529 L138.473176,3.87963529 C140.554765,3.87963529 142.249153,5.58825882 142.249153,7.68938824 C142.249153,9.79025882 140.554765,11.4988824 138.473176,11.4988824 L132.716941,11.4988824 L132.716941,3.87963529 Z M140.979882,13.6344353 C143.270988,12.6487059 144.880741,10.3551412 144.880741,7.68925882 C144.880741,4.12525882 142.007153,1.22617647 138.473176,1.22617647 L131.401212,1.22617647 C130.675988,1.22617647 130.085353,1.81914118 130.085353,2.55264706 L130.085353,19.8924 C130.085353,20.6261647 130.675988,21.219 131.401212,21.219 C132.126306,21.219 132.716941,20.6262941 132.716941,19.8925294 L132.716941,14.1524706 L138.290188,14.1524706 L141.491576,20.4936471 C141.647549,20.80676 141.922335,21.044436 142.254653,21.1536689 C142.586971,21.2629018 142.949182,21.2346068 143.260506,21.0750941 C143.907176,20.7418588 144.165224,19.9432588 143.837035,19.2908941 L140.979882,13.6344353 Z M14.0314706,1.60807059 C13.7831499,1.36200507 13.4468259,1.22532583 13.0972521,1.22841209 C12.7476782,1.23149836 12.4138198,1.3740944 12.1698824,1.62450588 L3.71968235,10.2940588 C3.21782353,10.8101529 3.21782353,11.6390353 3.71968235,12.1551294 L12.1698824,20.8228706 C12.4279294,21.0871294 12.7662118,21.2188706 13.1088941,21.2188706 C13.4412235,21.2188706 13.7736824,21.0933412 14.0316,20.8389176 C14.5473059,20.3250235 14.5557176,19.4839765 14.0477765,18.9620588 L6.50423529,11.2245294 L14.0479059,3.48544706 C14.5557176,2.9612 14.5474353,2.12222353 14.0316,1.60807059 L14.0314706,1.60807059 Z M30.9885529,1.22604706 C30.2633294,1.22604706 29.6728235,1.81927059 29.6728235,2.55290588 L29.6728235,13.5004941 C29.6728235,16.2937176 27.4201529,18.5652824 24.6500941,18.5652824 C21.8815882,18.5652824 19.6287882,16.2937176 19.6287882,13.5004941 L19.6287882,2.55290588 C19.6287882,1.81927059 19.0384118,1.22604706 18.3109882,1.22604706 C17.5857647,1.22604706 16.9972,1.81927059 16.9972,2.55290588 L16.9972,13.5004941 C16.9972,17.7571059 20.4306235,21.219 24.6500941,21.219 C28.8711176,21.219 32.3042824,17.7572353 32.3042824,13.5004941 L32.3042824,2.55290588 C32.3042824,1.81927059 31.7140353,1.22604706 30.9885529,1.22604706 Z M41.6189529,9.56068235 C36.9527529,8.45938824 37.3233882,6.40303529 37.4603059,5.62695294 C37.6055059,4.83068235 38.1008941,4.26942353 38.9816706,3.90784706 C40.7242,3.19478824 43.505,3.53410588 45.0584588,4.64963529 C45.3424688,4.85369677 45.6963081,4.9356657 46.041117,4.87727378 C46.3859259,4.81888187 46.6930479,4.62498196 46.8940353,4.33878824 C47.3150118,3.74129412 47.1780941,2.91435294 46.5855176,2.48781176 C44.3208118,0.860329412 40.5471647,0.402988235 37.9924471,1.44941176 C36.2834353,2.15043529 35.1755412,3.46512941 34.8732353,5.15563529 C34.5146353,7.13861176 34.8410118,10.6864353 41.0186118,12.1450353 C43.0014588,12.6126 44.4397412,13.4857412 44.9636,14.5427765 C45.3021412,15.2273647 45.2738,16.0016353 44.8771529,16.9094588 C44.4638118,17.8586941 43.4021176,18.2607765 42.5841059,18.4294 C40.5549294,18.8457176 37.9478,18.2790235 36.7631647,17.1655647 C36.2310235,16.6638353 35.3969647,16.6898471 34.9035176,17.2285882 C34.4058,17.7651294 34.4341412,18.6042353 34.9658941,19.1041529 C36.3684588,20.4245412 38.8184824,21.2188706 41.1836118,21.2188706 C41.8406353,21.2188706 42.4932588,21.1580471 43.1140471,21.0301882 C45.1289882,20.6114118 46.6116588,19.5286235 47.2847294,17.9786588 C47.9981765,16.3507882 48.0081412,14.7516471 47.3170824,13.3580118 C46.4306118,11.5659176 44.4057059,10.2165412 41.6189529,9.56068235 Z M62.9945412,1.22604706 L50.2285882,1.22604706 C49.5012941,1.22604706 48.9128588,1.81927059 48.9128588,2.55290588 C48.9128588,3.28641176 49.5014235,3.87937647 50.2285882,3.87937647 L55.2959647,3.87937647 L55.2959647,19.8921412 C55.2959647,20.6259059 55.8842706,21.219 56.6115647,21.219 C57.3392471,21.219 57.9272941,20.6260353 57.9272941,19.8921412 L57.9272941,3.87950588 L62.9946706,3.87950588 C63.7222235,3.87950588 64.3104,3.28641176 64.3104,2.55290588 C64.3104,1.81927059 63.7222235,1.22604706 62.9946706,1.22604706 L62.9945412,1.22604706 Z M108.979976,1.32970588 C108.492094,1.12665882 107.930188,1.22811765 107.549329,1.60405882 L100.066094,8.97561176 L92.5824706,1.60405882 C92.2043294,1.22811765 91.6416471,1.12665882 91.1522118,1.32970588 C90.6649765,1.53676471 90.3464941,2.01856471 90.3464941,2.55290588 L90.3464941,19.8921412 C90.3464941,20.6259059 90.9366118,21.219 91.6641647,21.219 C92.3893882,21.219 92.9779529,20.6260353 92.9779529,19.8921412 L92.9779529,5.70421176 L99.1470118,11.7794471 C99.656738,12.2834675 100.477133,12.2834675 100.986859,11.7794471 L107.154106,5.70421176 L107.154106,19.8921412 C107.154106,20.6259059 107.742671,21.219 108.469835,21.219 C109.197518,21.219 109.785306,20.6260353 109.785306,19.8921412 L109.785306,2.55290588 C109.785306,2.01843529 109.4676,1.53676471 108.979976,1.32970588 Z M126.392459,3.87963529 C127.117682,3.87963529 127.708188,3.28628235 127.708188,2.55277647 C127.708188,1.81914118 127.117682,1.22630588 126.392459,1.22630588 L114.123835,1.22630588 C113.396153,1.22630588 112.808106,1.81914118 112.808106,2.55277647 L112.808106,19.8922706 C112.808106,20.6260353 113.396153,21.2188706 114.123835,21.2188706 L126.392459,21.2188706 C127.117682,21.2188706 127.708188,20.6261647 127.708188,19.8924 C127.708188,19.1586353 127.117682,18.5654118 126.392459,18.5654118 L115.439565,18.5654118 L115.439565,12.3502824 L124.325106,12.3502824 C125.0524,12.3502824 125.642647,11.7568 125.642647,11.0235529 C125.642647,10.2899176 125.0524,9.69669412 124.325235,9.69669412 L115.439565,9.69669412 L115.439565,3.87963529 L126.392459,3.87963529 Z" id="Shape" fill="#000000" fill-rule="nonzero"></path>
            <path d="M80.6345294,0.252870588 L72.4625647,0.252870588 C68.8355412,0.252870588 65.8840471,3.22934118 65.8840471,6.88677647 L65.8840471,15.1296588 C65.8840471,18.7869647 68.8355412,21.7635647 72.4625647,21.7635647 L78.0050118,21.7635647 L74.3505529,19.1098471 L72.4625647,19.1098471 C70.2862471,19.1098471 68.5153765,17.3243529 68.5153765,15.1296588 L68.5153765,6.88677647 C68.5153765,4.69234118 70.2862471,2.90632941 72.4625647,2.90632941 L80.6345294,2.90632941 C82.8105882,2.90632941 84.5840471,4.69221176 84.5840471,6.88677647 L84.5840471,15.1296588 C84.5840471,17.3244824 82.8105882,19.1098471 80.6344,19.1098471 L79.0812,19.1098471 L79.0812,21.7635647 L80.6345294,21.7635647 C84.2615529,21.7635647 87.2155059,18.7870941 87.2155059,15.1296588 L87.2155059,6.88677647 C87.2155059,3.22947059 84.2615529,0.252870588 80.6345294,0.252870588" id="Path" fill="#FF655D"></path>
        </g>
    </g>
</svg>