<?xml version="1.0" encoding="UTF-8"?>
<svg width="152px" height="33px" viewBox="0 0 152 33" version="1.1" xmlns="http://www.w3.org/2000/svg" xmlns:xlink="http://www.w3.org/1999/xlink">
    <!-- Generator: sketchtool 51.2 (57519) - http://www.bohemiancoding.com/sketch -->
    <title>1B987DC4-C6A4-4D64-BA66-DE74A07FF13F</title>
    <desc>Created with sketchtool.</desc>
    <defs>
        <linearGradient x1="50%" y1="86.7910367%" x2="50%" y2="100%" id="linearGradient-1">
            <stop stop-color="#F8F9FC" offset="0%"></stop>
            <stop stop-color="#FFFFFF" offset="100%"></stop>
        </linearGradient>
    </defs>
    <g id="01-Homepage" stroke="none" stroke-width="1" fill="none" fill-rule="evenodd">
        <g id="qualitista-landing" transform="translate(-1069.000000, -700.000000)">
            <g id="logos" transform="translate(220.000000, 696.000000)">
                <g id="Group-2" transform="translate(199.000000, 0.000000)">
                    <g id="logo-freshdesk" transform="translate(650.000000, 4.000000)">
                        <path d="M40.1547541,0.81 C36.0236066,0.81 34.5363934,3.645 34.5363934,6.318 L34.5363934,7.938 L33.7101639,7.938 C33.0491803,7.938 32.5534426,8.424 32.5534426,9.072 C32.5534426,9.72 33.0491803,10.206 33.7101639,10.206 L34.5363934,10.206 L34.5363934,21.384 C34.5363934,22.032 35.0321311,22.599 35.7757377,22.599 C36.5193443,22.599 37.015082,22.113 37.015082,21.384 L37.015082,10.125 L39.6590164,10.125 C40.32,10.125 40.8157377,9.639 40.8157377,8.991 C40.8157377,8.343 40.32,7.857 39.6590164,7.857 L37.015082,7.857 L37.015082,6.237 C37.015082,4.779 37.5934426,2.997 40.237377,2.997 C40.8983607,2.997 41.3940984,2.511 41.3940984,1.944 C41.3114754,1.296 40.8157377,0.81 40.1547541,0.81 Z M49.5737705,7.533 C47.9213115,7.452 46.4340984,8.181 45.442623,9.477 L45.442623,8.829 C45.442623,8.181 44.9468852,7.614 44.2032787,7.614 C43.4596721,7.614 42.9639344,8.181 42.9639344,8.829 L42.9639344,21.303 C42.9639344,21.951 43.4596721,22.518 44.2032787,22.518 C44.9468852,22.518 45.442623,22.032 45.442623,21.303 L45.442623,14.418 C45.442623,11.502 47.012459,9.801 49.5737705,9.801 C50.2347541,9.801 50.7304918,9.315 50.7304918,8.667 C50.7304918,8.019 50.1521311,7.533 49.5737705,7.533 Z M64.1980328,13.689 C64.1980328,12.312 63.784918,10.935 63.0413115,9.801 C61.8845902,8.262 59.9842623,7.371 58.0013115,7.533 C53.787541,7.533 51.3914754,10.287 51.3914754,15.066 C51.3914754,20.007 53.787541,22.68 58.3318033,22.68 C60.1495082,22.761 61.9672131,22.113 63.3718033,20.898 C63.6196721,20.736 63.784918,20.412 63.784918,20.088 C63.784918,19.521 63.2891803,19.035 62.7108197,19.035 C62.4629508,19.035 62.215082,19.116 62.0498361,19.278 C61.0583607,20.088 59.7363934,20.574 58.4144262,20.574 C55.6878689,20.574 53.9527869,18.792 53.8701639,15.957 L62.7934426,15.957 C64.1980328,15.795 64.1980328,14.499 64.1980328,13.689 Z M58.0839344,9.639 C60.562623,9.639 61.8019672,11.016 61.8845902,13.689 L53.8701639,13.689 C54.1180328,11.097 55.6052459,9.639 58.0839344,9.639 Z M72.295082,13.851 C70.477377,13.203 68.9901639,12.717 68.9901639,11.421 C68.9901639,9.963 70.642623,9.801 71.5514754,9.801 C72.7908197,9.72 74.0301639,10.206 74.8563934,11.016 C75.2695082,11.421 76.0131148,11.421 76.4262295,11.016 C76.6740984,10.773 76.7567213,10.53 76.7567213,10.206 C76.7567213,9.963 76.6740984,9.72 76.5088525,9.477 C75.2695082,8.1 73.4518033,7.29 71.6340984,7.452 C68.5770492,7.452 66.6767213,8.991 66.6767213,11.34 C66.6767213,14.256 69.3206557,15.147 71.6340984,15.957 C73.3691803,16.524 74.9390164,17.01 74.9390164,18.306 C74.9390164,20.007 72.9560656,20.331 71.7993443,20.331 C70.3947541,20.412 68.9901639,19.845 67.9986885,18.873 C67.7508197,18.63 67.5029508,18.549 67.172459,18.468 C66.5940984,18.468 66.0983607,18.954 66.0983607,19.521 C66.0983607,19.764 66.1809836,20.007 66.3462295,20.25 C67.7508197,21.87 69.7337705,22.68 71.7993443,22.68 C75.2695082,22.68 77.335082,21.06 77.335082,18.468 C77.1698361,15.471 74.6085246,14.661 72.295082,13.851 Z M86.5888525,7.452 C85.1016393,7.371 83.6144262,8.019 82.6229508,9.153 L82.6229508,1.215 C82.6229508,0.567 82.1272131,0 81.3836066,0 C80.722623,0 80.2268852,0.486 80.2268852,1.215 L80.2268852,21.303 C80.2268852,21.951 80.722623,22.518 81.3836066,22.518 C82.0445902,22.518 82.6229508,22.032 82.6229508,21.303 L82.6229508,13.77 C82.6229508,11.016 83.944918,9.639 86.5888525,9.639 C89.2327869,9.639 90.1416393,10.773 90.1416393,13.527 L90.1416393,21.303 C90.1416393,21.951 90.637377,22.518 91.3809836,22.518 C92.0419672,22.518 92.5377049,22.032 92.5377049,21.303 L92.5377049,13.122 C92.5377049,9.396 90.5547541,7.452 86.5888525,7.452 Z M106.66623,0 C106.005246,0 105.509508,0.486 105.509508,1.134 L105.509508,9.072 C104.43541,8.019 102.948197,7.452 101.460984,7.452 C97.1645902,7.452 95.0163934,9.963 95.0163934,14.985 C95.0163934,20.007 97.3298361,22.599 101.62623,22.599 C105.592131,22.599 107.988197,20.25 107.988197,16.362 L107.988197,1.215 C107.905574,0.567 107.327213,0 106.66623,0 Z M101.543607,20.493 C98.7344262,20.493 97.3298361,18.711 97.3298361,15.066 C97.3298361,11.421 98.7344262,9.639 101.543607,9.639 C103.196066,9.72 104.765902,10.692 105.509508,12.15 L105.509508,16.362 C105.509508,18.954 104.022295,20.493 101.543607,20.493 Z M123.438689,13.689 C123.438689,12.312 123.025574,10.935 122.281967,9.801 C121.125246,8.262 119.224918,7.371 117.241967,7.533 C113.028197,7.533 110.632131,10.287 110.632131,15.066 C110.632131,20.007 113.028197,22.68 117.572459,22.68 C119.390164,22.761 121.207869,22.113 122.612459,20.898 C122.860328,20.736 123.025574,20.412 123.025574,20.088 C123.025574,19.521 122.529836,19.035 121.951475,19.035 C121.703607,19.035 121.455738,19.116 121.290492,19.278 C120.299016,20.088 118.977049,20.574 117.655082,20.574 C114.928525,20.574 113.193443,18.792 113.11082,15.957 L122.034098,15.957 C123.438689,15.795 123.438689,14.499 123.438689,13.689 Z M117.241967,9.639 C119.720656,9.639 120.96,11.016 121.042623,13.689 L113.028197,13.689 C113.276066,11.097 114.763279,9.639 117.241967,9.639 Z M131.535738,13.851 C129.718033,13.203 128.23082,12.717 128.23082,11.421 C128.23082,9.963 129.883279,9.801 130.792131,9.801 C132.031475,9.72 133.27082,10.206 134.097049,11.016 C134.344918,11.259 134.592787,11.34 134.923279,11.34 C135.501639,11.34 135.997377,10.854 135.997377,10.287 C135.997377,10.044 135.914754,9.801 135.749508,9.558 C134.510164,8.181 132.692459,7.371 130.874754,7.533 C127.817705,7.533 125.917377,9.072 125.917377,11.421 C125.917377,14.337 128.561311,15.228 130.874754,16.038 C132.609836,16.605 134.179672,17.091 134.179672,18.387 C134.179672,20.088 132.196721,20.412 131.04,20.412 C129.63541,20.493 128.23082,19.926 127.239344,18.954 C126.991475,18.711 126.743607,18.63 126.413115,18.549 C125.834754,18.549 125.339016,19.035 125.339016,19.602 C125.339016,19.845 125.421639,20.088 125.586885,20.331 C126.991475,21.87 128.974426,22.68 131.122623,22.599 C134.592787,22.599 136.658361,20.979 136.658361,18.387 C136.410492,15.471 133.84918,14.661 131.535738,13.851 Z M150.869508,20.574 L145.416393,13.689 L150.37377,9.801 C150.704262,9.558 150.869508,9.234 150.869508,8.829 C150.869508,8.181 150.37377,7.695 149.712787,7.695 C149.382295,7.695 149.134426,7.776 148.886557,8.019 L141.780984,13.689 L141.780984,1.215 C141.780984,0.567 141.202623,0.081 140.541639,0.081 C139.880656,0.081 139.384918,0.567 139.384918,1.215 L139.384918,21.303 C139.384918,21.951 139.963279,22.437 140.624262,22.437 C141.285246,22.437 141.780984,21.951 141.780984,21.303 L141.780984,16.443 L143.433443,15.147 L148.886557,21.951 C149.134426,22.275 149.547541,22.518 149.878033,22.518 C150.539016,22.518 151.034754,22.032 151.034754,21.384 C151.117377,21.06 151.034754,20.817 150.869508,20.574 Z" id="Shape" fill="#4D4D4D" fill-rule="nonzero"></path>
                        <path d="M28.1744262,8.262 L28.1744262,18.63" id="Shape"></path>
                        <path d="M14.0459016,4.779 L24.6216393,4.779 C26.6045902,4.779 28.1744262,6.318 28.1744262,8.262 L28.1744262,18.63 C28.1744262,26.244 21.895082,32.4 14.1285246,32.4 L14.0459016,32.4 C6.27934426,32.4 0,26.244 0,18.63 C0,11.016 6.27934426,4.86 14.0459016,4.779 Z" id="Shape" fill="#25C16F" fill-rule="nonzero"></path>
                        <path d="M14.0459016,10.935 C10.4931148,10.935 7.60131148,13.77 7.60131148,17.253 L7.60131148,21.546 C7.60131148,22.68 8.59278689,23.652 9.7495082,23.652 L11.5672131,23.652 L11.5672131,18.711 L9.08852459,18.711 L9.08852459,17.334 C9.17114754,14.58 11.5672131,12.474 14.2937705,12.636 C16.9377049,12.717 19.0032787,14.823 19.0859016,17.334 L19.0859016,18.711 L16.6072131,18.711 L16.6072131,23.652 L18.2596721,23.652 L18.2596721,23.733 C18.2596721,24.786 17.3508197,25.677 16.2767213,25.677 L14.2937705,25.677 C14.1285246,25.677 13.9632787,25.758 13.9632787,25.92 C13.9632787,26.082 14.1285246,26.244 14.2937705,26.244 L16.2767213,26.244 C17.6813115,26.244 18.8380328,25.11 18.8380328,23.733 L18.8380328,23.571 C19.8295082,23.328 20.4904918,22.518 20.4904918,21.546 L20.4904918,17.334 C20.5731148,13.77 17.6813115,10.935 14.0459016,10.935 Z" id="Shape" fill="#FFFFFF" fill-rule="nonzero"></path>
                    </g>
                </g>
            </g>
        </g>
    </g>
</svg>