<?xml version="1.0" encoding="UTF-8"?>
<svg width="131px" height="26px" viewBox="0 0 131 26" version="1.1" xmlns="http://www.w3.org/2000/svg" xmlns:xlink="http://www.w3.org/1999/xlink">
    <!-- Generator: sketchtool 51.2 (57519) - http://www.bohemiancoding.com/sketch -->
    <title>D52B656A-A9B2-4595-85A9-73E91B163F6E</title>
    <desc>Created with sketchtool.</desc>
    <defs>
        <linearGradient x1="50%" y1="86.7910367%" x2="50%" y2="100%" id="linearGradient-1">
            <stop stop-color="#F8F9FC" offset="0%"></stop>
            <stop stop-color="#FFFFFF" offset="100%"></stop>
        </linearGradient>
    </defs>
    <g id="01-Homepage" stroke="none" stroke-width="1" fill="none" fill-rule="evenodd">
        <g id="qualitista-landing" transform="translate(-419.000000, -700.000000)">
            <g id="logos" transform="translate(220.000000, 696.000000)" fill="#03363D" fill-rule="nonzero">
                <g id="Group-2" transform="translate(199.000000, 0.000000)">
                    <g id="logo-zendesk" transform="translate(0.000000, 4.400000)">
                        <path d="M86.6676857,21.6907438 C88.3934602,21.7261918 90.0632203,21.0785866 91.3125714,19.8892562 L93.6068571,22.369686 C92.0842857,23.9295868 89.9777143,25.0917025 86.6989714,25.0917025 C81.0779714,25.0917025 77.4488286,21.3720992 77.4488286,16.3300165 C77.4488286,11.3316694 81.2740286,7.56833058 86.1900571,7.56833058 C91.7714286,7.56833058 94.9312857,11.808595 94.6601429,17.6899835 L81.4784286,17.6899835 C81.9456286,20.130843 83.6642571,21.6907438 86.6676857,21.6907438 Z M90.6868571,14.8888264 C90.3364571,12.6083306 88.9703143,10.9318017 86.2380286,10.9318017 C83.7018,10.9318017 81.9456286,12.3709091 81.4763429,14.8888264 L90.6868571,14.8888264 Z" id="Shape"></path>
                        <polygon id="Shape" points="0.0563142857 21.5074711 10.2074857 11.2087934 0.294085714 11.2087934 0.294085714 7.97861157 14.9128571 7.97861157 14.9128571 11.275438 4.7596 21.5741157 15.0484286 21.5741157 15.0484286 24.8042975 0.0563142857 24.8042975"></polygon>
                        <path d="M26.4468571,21.6907438 C28.1726316,21.7261918 29.8423917,21.0785866 31.0917429,19.8892562 L33.3860286,22.369686 C31.8634571,23.9295868 29.7568857,25.0917025 26.4781429,25.0917025 C20.8571429,25.0917025 17.228,21.3720992 17.228,16.3300165 C17.228,11.3316694 21.0532,7.56833058 25.9692286,7.56833058 C31.5506,7.56833058 34.7104571,11.808595 34.4393143,17.6899835 L21.2576,17.6899835 C21.7248,20.130843 23.4434286,21.6907438 26.4468571,21.6907438 Z M30.4660286,14.8909091 C30.1156286,12.6104132 28.7494857,10.9338843 26.0172,10.9338843 C23.4809714,10.9338843 21.7248,12.3729917 21.2555143,14.8909091 L30.4660286,14.8909091 Z" id="Shape"></path>
                        <path d="M56.3685143,16.3404298 C56.3685143,10.9547107 60.3960286,7.59332231 64.8281714,7.59332231 C67.0619714,7.59332231 69.1956571,8.57008264 70.4470857,10.1195702 L70.4470857,0.185355372 L74.0428571,0.185355372 L74.0428571,24.760562 L70.4470857,24.760562 L70.4470857,22.4321653 C69.1622857,24.0816198 67.0286,25.0917025 64.7948,25.0917025 C60.4982286,25.0917025 56.3685143,21.6928264 56.3685143,16.344595 M70.6514857,16.3112727 C70.6514857,13.3164298 68.3843143,10.8589091 65.3037143,10.8589091 C62.2919429,10.8589091 59.9559429,13.2477025 59.9559429,16.3112727 C59.9559429,19.374843 62.2898571,21.7969587 65.3037143,21.7969587 C68.3843143,21.7969587 70.6514857,19.339438 70.6514857,16.3112727" id="Shape"></path>
                        <path d="M97.0024,21.1867438 L100.249857,19.5039669 C101.125927,21.061471 102.793526,22.0066831 104.581886,21.959405 C106.613371,21.959405 107.662486,20.9180826 107.662486,19.7393058 C107.662486,18.3939174 105.699829,18.0898512 103.568229,17.6566612 C100.689943,17.0506116 97.7136286,16.1071736 97.7136286,12.6416529 C97.7136286,9.9821157 100.251943,7.52459504 104.246086,7.56 C107.393429,7.56 109.729429,8.80958678 111.049686,10.8235041 L108.04,12.4687934 C107.262029,11.2900165 105.941771,10.5506777 104.250257,10.5506777 C102.320971,10.5506777 101.330257,11.4941157 101.330257,12.570843 C101.330257,13.7829421 102.8862,14.1182479 105.3244,14.6534876 C108.0984,15.2595372 111.245743,16.1675702 111.245743,19.6684959 C111.245743,21.9906446 109.216343,25.1208595 104.408771,25.0833719 C100.890171,25.0833719 98.4186,23.6692562 96.9982286,21.1784132" id="Shape"></path>
                        <polygon id="Shape" points="120.994371 17.2817851 118.149457 20.3786777 118.149457 24.754314 114.564114 24.754314 114.564114 0.185355372 118.149457 0.185355372 118.149457 16.2717025 125.7644 7.92446281 130.131886 7.92446281 123.5306 15.1283306 130.300829 24.754314 126.239943 24.754314"></polygon>
                        <path d="M45.5269714,7.58499174 C41.2616857,7.58499174 37.6909429,10.3444959 37.6909429,14.9221488 L37.6909429,24.7522314 L41.3472,24.7522314 L41.3472,15.3803306 C41.3472,12.6208264 42.9365143,10.9692893 45.6437714,10.9692893 C48.3510286,10.9692893 49.7067429,12.6208264 49.7067429,15.3803306 L49.7067429,24.7522314 L53.363,24.7522314 L53.363,14.9221488 C53.363,10.3403306 49.7922571,7.58499174 45.5269714,7.58499174" id="Shape"></path>
                    </g>
                </g>
            </g>
        </g>
    </g>
</svg>