
<svg width="96px" height="33px" viewBox="0 0 96 33" version="1.1" xmlns="http://www.w3.org/2000/svg" xmlns:xlink="http://www.w3.org/1999/xlink">
    <defs>
        <linearGradient x1="50%" y1="0%" x2="50%" y2="100%" id="linearGradient-1">
            <stop stop-color="#2AC420" offset="0%"></stop>
            <stop stop-color="#2CAD00" offset="100%"></stop>
        </linearGradient>
    </defs>
    <g id="Page-1" stroke="none" stroke-width="1" fill="none" fill-rule="evenodd">
        <g id="33513-logotype_color-5e8242">
            <g id="TYPE" transform="translate(40.660714, 4.714286)">
                <rect id="l" fill="#424242" x="53.0357143" y="1.17857143" width="1.76785714" height="17.6785714" rx="0.883928571"></rect>
                <rect id="l" fill="#424242" x="48.9107143" y="1.17857143" width="1.76785714" height="17.6785714" rx="0.883928571"></rect>
                <path d="M44.7857143,8.75594139 L44.7857143,7.95727268 C44.7857143,7.46803449 45.182456,7.07142857 45.6696429,7.07142857 C46.1578231,7.07142857 46.5535714,7.46693045 46.5535714,7.95727268 L46.5535714,17.9712988 C46.5535714,18.4605369 46.1568297,18.8571429 45.6696429,18.8571429 C45.1814627,18.8571429 44.7857143,18.461641 44.7857143,17.9712988 L44.7857143,17.17263 C43.7227898,18.2146338 42.266785,18.8571429 40.6607143,18.8571429 C37.4061793,18.8571429 34.7678571,16.2188208 34.7678571,12.9642857 C34.7678571,9.70975058 37.4061793,7.07142857 40.6607143,7.07142857 C42.266785,7.07142857 43.7227898,7.71393759 44.7857143,8.75594139 Z M40.6607143,17.0892857 C42.9388889,17.0892857 44.7857143,15.2424603 44.7857143,12.9642857 C44.7857143,10.6861111 42.9388889,8.83928571 40.6607143,8.83928571 C38.3825396,8.83928571 36.5357143,10.6861111 36.5357143,12.9642857 C36.5357143,15.2424603 38.3825396,17.0892857 40.6607143,17.0892857 Z" id="a" fill="#424242" fill-rule="nonzero"></path>
                <path d="M33.700613,8.72795849 C31.360954,6.38829956 27.5676174,6.38829956 25.2279584,8.72795849 C22.8882995,11.0676174 22.8882995,14.860954 25.2279584,17.2006129 C27.5676174,19.5402719 31.360954,19.5402719 33.700613,17.2006129 C34.0458085,16.8554174 34.0458085,16.2957448 33.700613,15.9505492 C33.3554175,15.6053536 32.7957447,15.6053536 32.4505492,15.9505492 C30.8012815,17.5998169 28.1272899,17.5998169 26.4780222,15.9505492 C24.8287545,14.3012814 24.8287545,11.62729 26.4780222,9.97802225 C28.1272899,8.32875448 30.8012815,8.32875448 32.4505492,9.97802225 C32.7957447,10.3232178 33.3554175,10.3232178 33.700613,9.97802225 C34.0458085,9.63282668 34.0458085,9.07315406 33.700613,8.72795849 Z" id="c" fill="#424242"></path>
                <path d="M20.0357143,8.18126689 L20.0357143,7.95727268 C20.0357143,7.46803449 19.6389726,7.07142857 19.1517857,7.07142857 C18.6636054,7.07142857 18.2678571,7.46693045 18.2678571,7.95727268 L18.2678571,17.9712988 C18.2678571,18.4605369 18.6645988,18.8571429 19.1517857,18.8571429 C19.639966,18.8571429 20.0357143,18.461641 20.0357143,17.9712988 L20.0357143,12.7835744 C20.0887148,10.3659353 21.2096516,8.84504046 22.9653582,8.84504046 C23.4535384,8.84504046 23.8492868,8.44929215 23.8492868,7.96111189 C23.8492868,7.47293162 23.4535384,7.07718332 22.9653582,7.07718332 C21.7872616,7.07718332 20.7978689,7.47964362 20.0357143,8.18126689 Z" id="r" fill="#424242"></path>
                <rect id="i" fill="#424242" x="14.1428571" y="7.07142857" width="1.76785714" height="11.7857143" rx="0.883928571"></rect>
                <circle id="•" fill="url(#linearGradient-1)" cx="15.0267857" cy="2.0625" r="2.0625"></circle>
                <path d="M10.0178571,8.75594139 L10.0178571,7.95727268 C10.0178571,7.46803449 10.4145988,7.07142857 10.9017857,7.07142857 C11.389966,7.07142857 11.7857143,7.46693045 11.7857143,7.95727268 L11.7857143,17.9712988 C11.7857143,18.4605369 11.3889726,18.8571429 10.9017857,18.8571429 C10.4136054,18.8571429 10.0178571,18.461641 10.0178571,17.9712988 L10.0178571,17.17263 C8.95493264,18.2146338 7.4989279,18.8571429 5.89285714,18.8571429 C2.63832201,18.8571429 0,16.2188208 0,12.9642857 C0,9.70975058 2.63832201,7.07142857 5.89285714,7.07142857 C7.4989279,7.07142857 8.95493264,7.71393759 10.0178571,8.75594139 Z M5.89285714,17.0892857 C8.17103173,17.0892857 10.0178571,15.2424603 10.0178571,12.9642857 C10.0178571,10.6861111 8.17103173,8.83928571 5.89285714,8.83928571 C3.61468256,8.83928571 1.76785714,10.6861111 1.76785714,12.9642857 C1.76785714,15.2424603 3.61468256,17.0892857 5.89285714,17.0892857 Z" id="a" fill="#424242" fill-rule="nonzero"></path>
            </g>
            <path d="M16.5,33 C7.425,33 0,25.575 0,16.5 C0,7.425 7.425,0 16.5,0 C25.575,0 33,7.425 33,16.5 C33,25.575 25.575,33 16.5,33 Z M16.5,2.35714286 C8.72142857,2.35714286 2.35714286,8.72142857 2.35714286,16.5 C2.35714286,24.2785714 8.72142857,30.6428571 16.5,30.6428571 C24.2785714,30.6428571 30.6428571,24.2785714 30.6428571,16.5 C30.6428571,8.72142857 24.2785714,2.35714286 16.5,2.35714286 Z M24.0316401,19.7638177 C23.6407734,19.4055231 23.1847623,19.1449454 22.7287512,18.9169398 C22.0447344,18.5912176 21.0349955,18.070062 20.2858343,18.5586453 C20.0252566,18.7215065 19.8298232,19.0146565 19.6018177,19.2100898 C19.3086676,19.5032398 18.9829454,19.7963898 18.5920787,19.9918231 C16.9308953,20.8387009 14.7485563,20.4804066 13.3805229,19.2100898 C12.5987896,18.3957842 12.1102062,17.2231842 12.1427785,16.0831564 C12.1753507,15.2037063 12.4685007,14.2916841 13.0222285,13.5750951 C13.2502341,13.2819451 13.5433841,13.0213673 13.8039619,12.7282173 C14.0645396,12.4676395 14.2274008,12.1744895 14.2274008,11.7836228 C14.2274008,11.2950395 13.9993952,10.8390284 13.8039619,10.3830172 C13.6085285,9.95957832 13.4130952,9.50356719 13.1199452,9.14527273 C12.8593674,8.78697826 12.4685007,8.39611159 12.0450618,8.23325046 C11.8496284,8.16810602 11.6541951,8.13553378 11.4587618,8.20067824 C11.198184,8.26582269 11.0027506,8.46125602 10.8073173,8.62411715 C9.96043946,9.27556162 9.08098942,10.0247228 8.65755053,11.0018895 C7.9409616,12.5653562 8.26668384,14.3568285 8.88555609,15.887723 C9.60214501,17.6140509 10.7747451,19.1775176 12.1427785,20.4478344 C12.957084,21.2621398 13.8691063,22.0113011 14.846273,22.6301733 C16.1165897,23.4119066 17.5823398,24.0633511 19.0806621,24.2262122 C20.1229732,24.3565011 21.2304288,24.19364 22.1424512,23.7050568 C22.5333177,23.4770511 22.8916123,23.2164733 23.2173344,22.8907511 C23.575629,22.5324566 23.9664955,22.1415898 24.2596455,21.7507233 C24.455079,21.5227177 24.7156568,21.2947122 24.748229,20.9364177 C24.7808012,20.4804066 24.3573623,20.0569677 24.0316401,19.7638177 Z" id="LOGO" fill="url(#linearGradient-1)" fill-rule="nonzero"></path>
        </g>
    </g>
</svg>