<?xml version="1.0" encoding="UTF-8"?>
<svg width="146px" height="36px" viewBox="0 0 146 36" version="1.1" xmlns="http://www.w3.org/2000/svg" xmlns:xlink="http://www.w3.org/1999/xlink">
    <!-- Generator: sketchtool 51.2 (57519) - http://www.bohemiancoding.com/sketch -->
    <title>59E07A7B-7757-4AA5-BAB0-9D435EA71BBA</title>
    <desc>Created with sketchtool.</desc>
    <defs>
        <linearGradient x1="50%" y1="86.7910367%" x2="50%" y2="100%" id="linearGradient-1">
            <stop stop-color="#F8F9FC" offset="0%"></stop>
            <stop stop-color="#FFFFFF" offset="100%"></stop>
        </linearGradient>
    </defs>
    <g id="01-Homepage" stroke="none" stroke-width="1" fill="none" fill-rule="evenodd">
        <g id="qualitista-landing" transform="translate(-620.000000, -696.000000)">
            <g id="logos" transform="translate(220.000000, 696.000000)">
                <g id="Group-2" transform="translate(199.000000, 0.000000)">
                    <g id="logo-intercom" transform="translate(201.000000, 0.000000)">
                        <g id="SVGID_3_-link" fill="#286EFA">
                            <path d="M31.7252336,0 L4.68401221,0 C2.19509313,0 0.177141985,2.014875 0.177141985,4.5 L0.177141985,31.5 C0.177141985,33.985125 2.19509313,36 4.68401221,36 L31.7252336,36 C34.2141527,36 36.2321038,33.985125 36.2321038,31.5 L36.2321038,4.5 C36.2321038,2.014875 34.2141527,0 31.7252336,0 Z M23.0112,6.600375 C23.0112,5.93775 23.549771,5.4 24.2134076,5.4 C24.8770443,5.4 25.4156153,5.93775 25.4156153,6.600375 L25.4156153,22.63275 C25.4156153,23.295375 24.8770443,23.833125 24.2134076,23.833125 C23.549771,23.833125 23.0112,23.295375 23.0112,22.63275 L23.0112,6.600375 Z M17.0024153,5.992875 C17.0024153,5.33025 17.5409863,4.7925 18.2046229,4.7925 C18.8682595,4.7925 19.4068305,5.33025 19.4068305,5.992875 L19.4068305,23.39325 C19.4068305,24.055875 18.8682595,24.593625 18.2046229,24.593625 C17.5409863,24.593625 17.0024153,24.055875 17.0024153,23.39325 L17.0024153,5.992875 Z M10.9936305,6.600375 C10.9936305,5.93775 11.5322015,5.4 12.1958382,5.4 C12.8594748,5.4 13.3969191,5.93775 13.3969191,6.600375 L13.3969191,22.63275 C13.3969191,23.295375 12.8594748,23.833125 12.1958382,23.833125 C11.5322015,23.833125 10.9936305,23.295375 10.9936305,22.63275 L10.9936305,6.600375 Z M4.9848458,9 C4.9848458,8.337375 5.52229008,7.799625 6.18592672,7.799625 C6.84956336,7.799625 7.38813435,8.337375 7.38813435,9 L7.38813435,19.79325 C7.38813435,20.455875 6.84956336,20.993625 6.18592672,20.993625 C5.52229008,20.993625 4.9848458,20.455875 4.9848458,19.79325 L4.9848458,9 Z M31.0052611,27.30375 C30.8204794,27.4635 26.3676916,31.192875 18.2046229,31.192875 C10.0415542,31.192875 5.59101985,27.4635 5.40398473,27.30375 C4.90034198,26.872875 4.84062595,26.11575 5.2732855,25.61175 C5.7036916,25.11 6.4608458,25.050375 6.96448855,25.480125 C7.03434504,25.538625 11.0105313,28.79325 18.2034962,28.79325 C25.4865985,28.79325 29.4008153,25.515 29.4391237,25.482375 C29.9416397,25.050375 30.702174,25.108875 31.1325802,25.61175 C31.5674931,26.11575 31.5089038,26.872875 31.0052611,27.30375 Z M31.4244,19.79325 C31.4244,20.455875 30.885829,20.993625 30.2221924,20.993625 C29.5585557,20.993625 29.0211115,20.455875 29.0211115,19.79325 L29.0211115,9 C29.0211115,8.337375 29.5585557,7.799625 30.2221924,7.799625 C30.885829,7.799625 31.4244,8.337375 31.4244,9 L31.4244,19.79325 Z" id="SVGID_3_"></path>
                        </g>
                        <g id="Group" transform="translate(47.548855, 11.250000)" fill="#000000" fill-rule="nonzero">
                            <path d="M2.98580153,11.95425 C2.98580153,12.555 2.52610076,13.048875 1.87147786,13.048875 C1.23488244,13.048875 0.775181679,12.553875 0.775181679,11.95425 L0.775181679,1.517625 C0.775181679,0.916875 1.23488244,0.423 1.88950534,0.423 C2.52610076,0.423 2.98580153,0.918 2.98580153,1.517625 L2.98580153,11.95425 Z" id="Shape"></path>
                            <path d="M17.2759603,1.517625 L17.2759603,11.05425 C17.2759603,12.3435 16.5864092,13.068 15.490113,13.068 L15.402229,13.068 C14.3588885,13.068 13.8631328,12.46725 13.4214595,11.584125 L11.1928122,7.257375 L9.21204275,2.79 L9.26499847,7.11675 L9.28302595,11.937375 C9.28302595,12.538125 8.82332519,13.032 8.16870229,13.032 C7.53210687,13.032 7.07240611,12.537 7.07240611,11.937375 L7.07240611,2.40075 C7.07240611,1.21725 7.76195725,0.387 8.9652916,0.387 L9.05317557,0.387 C10.1674992,0.387 10.6272,0.98775 11.07,1.870875 L13.2625924,6.16275 L15.1374504,10.330875 L15.0844947,6.339375 L15.0664672,1.51875 C15.0664672,0.918 15.5261679,0.424125 16.1807908,0.424125 C16.8162595,0.423 17.2759603,0.916875 17.2759603,1.517625 Z" id="Shape"></path>
                            <path d="M26.1375939,11.937375 C26.1375939,12.538125 25.6778931,13.032 25.0232702,13.032 C24.3866748,13.032 23.926974,12.537 23.926974,11.937375 L23.926974,2.489625 L21.1856702,2.489625 C20.620058,2.489625 20.1603573,2.0655 20.1603573,1.447875 C20.1603573,0.847125 20.620058,0.424125 21.1856702,0.424125 L28.8788977,0.424125 C29.4445099,0.424125 29.9042107,0.84825 29.9042107,1.465875 C29.9042107,2.066625 29.4445099,2.489625 28.8788977,2.489625 L26.1375939,2.489625 L26.1375939,11.937375 Z" id="Shape"></path>
                            <path d="M32.7874809,11.584125 L32.7874809,1.783125 C32.7874809,0.865125 33.3001374,0.35325 34.2375664,0.388125 L40.6046473,0.388125 C41.1702595,0.388125 41.6299603,0.829125 41.6299603,1.429875 C41.6299603,2.030625 41.1702595,2.453625 40.6046473,2.453625 L34.9800733,2.453625 L34.9800733,5.491125 L39.9500244,5.491125 C40.4987359,5.491125 40.9404092,5.89725 40.9404092,6.48 C40.9404092,7.06275 40.4987359,7.468875 39.9500244,7.468875 L34.9800733,7.468875 L34.9800733,10.965375 L40.6046473,10.965375 C41.1702595,10.965375 41.6299603,11.406375 41.6299603,12.007125 C41.6299603,12.607875 41.1702595,13.030875 40.6046473,13.030875 L34.1846107,13.030875 C33.2652092,13.032 32.7525527,12.520125 32.7874809,11.584125 Z" id="Shape"></path>
                            <path d="M54.1883542,11.601 C54.4891878,12.112875 54.2942656,12.7665 53.6756977,13.084875 C53.0740305,13.38525 52.4194076,13.15575 52.1197008,12.643875 L49.6612031,8.105625 L47.3266443,8.105625 L47.3446718,11.955375 C47.3446718,12.556125 46.884971,13.05 46.2303481,13.05 C45.5937527,13.05 45.1340519,12.555 45.1340519,11.955375 L45.1340519,1.783125 C45.1340519,0.865125 45.6467084,0.35325 46.5841374,0.388125 L50.7755267,0.388125 C53.6587969,0.388125 54.8610046,2.260125 54.8610046,4.167 C54.8610046,5.986125 53.7996366,7.32825 51.9777344,7.6815 L54.1883542,11.601 Z M47.3255176,6.10875 L50.8273557,6.10875 C52.0126626,6.10875 52.6312305,5.349375 52.6312305,4.271625 C52.6312305,3.193875 51.9766076,2.4525 50.8093282,2.4525 L47.3255176,2.4525 L47.3255176,6.10875 Z" id="Shape"></path>
                            <path d="M59.423084,12.096 C58.0969374,10.9125 57.4952702,9.0585 57.4952702,6.7275 C57.4952702,4.3785 58.0789099,2.5425 59.3881557,1.377 C60.2016458,0.6705 61.297942,0.1935 62.8899939,0.1935 C64.2871237,0.1935 65.3665191,0.511875 66.1800092,1.200375 C66.8875878,1.765125 67.4002443,2.5605 67.7010779,3.673125 C67.859945,4.255875 67.4532,4.838625 66.7816763,4.962375 C66.1450809,5.068125 65.6324244,4.662 65.4375023,4.07925 C65.2256794,3.5145 64.9417466,3.108375 64.6059847,2.824875 C64.146284,2.41875 63.5806718,2.242125 62.8370382,2.242125 C62.0415756,2.242125 61.3508977,2.471625 60.8382412,2.9835 C60.0957344,3.724875 59.7768733,5.050125 59.7768733,6.7275 C59.7768733,8.388 60.0777069,9.712125 60.8562687,10.4535 C61.3689252,10.965375 62.0415756,11.194875 62.8190107,11.194875 C63.6325008,11.194875 64.2510687,10.983375 64.7648519,10.506375 C65.0296305,10.258875 65.2606076,9.941625 65.4194748,9.570375 C65.6493252,9.0225 66.1270534,8.616375 66.7456214,8.758125 C67.3641893,8.899875 67.7540336,9.4995 67.5591115,10.08225 C67.2402504,11.053125 66.6926656,11.8305 65.9501588,12.360375 C65.1366687,12.943125 64.1282565,13.2435 62.8550656,13.2435 C61.2280855,13.2435 60.2016458,12.7665 59.423084,12.096 Z" id="Shape"></path>
                            <path d="M70.1945038,6.7275 C70.1945038,2.772 71.821484,0.1935 75.6602107,0.1935 C79.4628824,0.1935 81.1078901,2.701125 81.1078901,6.7275 C81.1078901,10.80675 79.444855,13.2615 75.6602107,13.2615 C71.8045832,13.2615 70.1945038,10.80675 70.1945038,6.7275 Z M78.8431878,6.7275 C78.8431878,3.724875 77.7468916,2.260125 75.6421832,2.260125 C73.5724031,2.260125 72.4761069,3.726 72.4761069,6.7275 C72.4761069,9.730125 73.5374748,11.194875 75.6421832,11.194875 C77.7288641,11.194875 78.8431878,9.729 78.8431878,6.7275 Z" id="Shape"></path>
                            <path d="M98.2632916,11.937375 C98.2632916,12.538125 97.8035908,13.032 97.1489679,13.032 C96.5123725,13.032 96.0526718,12.537 96.0526718,11.937375 L96.0526718,7.2045 L96.1056275,2.595375 L94.5665313,7.275375 L93.0105344,11.8845 C92.7457557,12.69675 92.1970443,13.015125 91.5074931,13.015125 C90.781887,13.015125 90.2512031,12.679875 89.9683969,11.867625 L88.376345,7.2765 L86.9082321,2.667375 L86.9611878,7.205625 L86.9611878,11.9385 C86.9611878,12.53925 86.501487,13.033125 85.8468641,13.033125 C85.2102687,13.033125 84.7505679,12.538125 84.7505679,11.9385 L84.7505679,2.49075 C84.7505679,1.1835 85.4581466,0.424125 86.6964092,0.424125 C87.8636885,0.424125 88.5183115,1.04175 88.8890015,2.172375 L90.5159817,6.993 L91.5063664,10.278 L92.5147786,6.993 L94.1417588,2.172375 C94.5135756,1.04175 95.150171,0.424125 96.3174504,0.424125 C97.555713,0.424125 98.2452641,1.1655 98.2452641,2.49075 L98.2632916,11.937375 Z" id="Shape"></path>
                        </g>
                    </g>
                </g>
            </g>
        </g>
    </g>
</svg>