<?xml version="1.0" encoding="UTF-8"?>
<svg width="162px" height="33px" viewBox="0 0 162 33" version="1.1" xmlns="http://www.w3.org/2000/svg" xmlns:xlink="http://www.w3.org/1999/xlink">
    <!-- Generator: sketchtool 51.2 (57519) - http://www.bohemiancoding.com/sketch -->
    <title>4048310F-41C3-4B89-A104-03C02792B1F9</title>
    <desc>Created with sketchtool.</desc>
    <defs>
        <linearGradient x1="50%" y1="86.7910367%" x2="50%" y2="100%" id="linearGradient-1">
            <stop stop-color="#F8F9FC" offset="0%"></stop>
            <stop stop-color="#FFFFFF" offset="100%"></stop>
        </linearGradient>
    </defs>
    <g id="01-Homepage" stroke="none" stroke-width="1" fill="none" fill-rule="evenodd">
        <g id="qualitista-landing" transform="translate(-837.000000, -697.000000)">
            <g id="logos" transform="translate(220.000000, 696.000000)" fill-rule="nonzero">
                <g id="Group-2" transform="translate(199.000000, 0.000000)">
                    <g id="logo-helpscout" transform="translate(418.000000, 1.000000)">
                        <path d="M44.4970273,6.075 L44.439239,6.09428571 L44.439239,14.715 L36.2718193,14.715 L36.2718193,6.09428571 L36.2140309,6.075 C35.0004756,5.82428571 33.8061831,5.82428571 32.6118906,6.075 L32.5541023,6.09428571 L32.5541023,25.92 L32.6118906,25.9392857 C33.2090369,26.055 33.8061831,26.1321429 34.4033294,26.1321429 C35.0004756,26.1321429 35.5976219,26.0742857 36.2140309,25.9392857 L36.2718193,25.92 L36.2718193,17.8778571 L44.439239,17.8778571 L44.439239,25.92 L44.4970273,25.9392857 C45.6913199,26.19 46.9048751,26.19 48.0991677,25.9392857 L48.156956,25.92 L48.156956,6.09428571 L48.0991677,6.075 C46.8856124,5.84357143 45.6913199,5.84357143 44.4970273,6.075 Z M57.1526754,11.6485714 C52.8763377,11.6485714 50.3336504,14.3485714 50.3336504,18.8807143 C50.3336504,21.2335714 50.8730083,23.1042857 51.9517241,24.3964286 C53.1267539,25.8042857 54.8796671,26.5178571 57.2104637,26.5178571 C61.1593341,26.5178571 63.1819263,24.165 63.4323424,21.8314286 L63.4323424,21.7735714 L63.3745541,21.7542857 C62.3728894,21.4264286 61.4482759,21.3492857 60.3502973,21.5035714 L60.3117717,21.5035714 L60.3117717,21.5421429 C60.0806183,22.9307143 58.9248514,23.76 57.2489893,23.76 C54.8989298,23.76 53.7431629,22.4678571 53.7046373,19.8064286 L63.6442331,19.8064286 L63.6442331,19.7485714 C63.9331748,17.1257143 63.4130797,15.0042857 62.141736,13.5578571 C60.9667063,12.3235714 59.2523187,11.6485714 57.1526754,11.6485714 Z M57.1141498,14.2135714 C58.0965517,14.2135714 58.9248514,14.5221429 59.4834721,15.12 C60.0613555,15.7371429 60.3502973,16.6628571 60.2925089,17.7621429 L53.7046373,17.7621429 C53.7624257,15.5057143 55.0145065,14.2135714 57.1141498,14.2135714 Z M66.0520809,6.075 L65.9942925,6.09428571 L65.9942925,25.92 L66.0520809,25.9392857 C66.6107015,26.055 67.1693222,26.1321429 67.7472057,26.1321429 C68.3058264,26.1321429 68.8837099,26.0742857 69.4423306,25.9392857 L69.5001189,25.92 L69.5001189,6.09428571 L69.4423306,6.075 C68.3250892,5.82428571 67.188585,5.84357143 66.0520809,6.075 Z M79.2470868,11.6485714 C77.7638526,11.6485714 76.2035672,12.2271429 74.7203329,13.3264286 L74.5084423,12.285 L74.4699168,12.2657143 C73.6223543,12.015 72.9288942,12.015 72.1005945,12.2657143 L72.062069,12.285 L72.062069,32.0142857 L72.1198573,32.0335714 C72.678478,32.1492857 73.2370987,32.2264286 73.8149822,32.2264286 C74.3928656,32.2264286 74.9514863,32.1685714 75.510107,32.0335714 L75.5678954,32.0142857 L75.5678954,25.4185714 C76.7429251,26.1707143 77.9950059,26.5178571 79.4011891,26.5178571 C83.2922711,26.5178571 85.6230678,23.76 85.6230678,19.1121429 C85.603805,14.3871429 83.2922711,11.6485714 79.2470868,11.6485714 Z M75.510107,15.5635714 C76.5502973,14.85 77.5134364,14.5221429 78.5536266,14.5221429 C80.9229489,14.5221429 82.2135553,16.1614286 82.2135553,19.17 C82.2135553,22.1207143 80.9422117,23.6828571 78.5151011,23.6828571 C77.4749108,23.6828571 76.4925089,23.355 75.510107,22.6607143 L75.510107,15.5635714 Z M100.474673,15.255 C99.8775268,15.0235714 99.3381688,14.8307143 98.8180737,14.6571429 C96.1212842,13.6928571 94.5032105,13.1142857 94.4646849,11.6485714 C94.4454221,10.9735714 94.6573127,10.395 95.1196195,9.91285714 C95.7938169,9.21857143 96.930321,8.85214286 98.3172414,8.85214286 C99.6848989,8.85214286 100.744352,9.21857143 101.380024,9.89357143 C101.919382,10.4721429 102.150535,11.2628571 102.092747,12.2464286 L102.092747,12.3042857 L102.150535,12.3235714 C103.325565,12.555 104.500595,12.5357143 105.771938,12.2464286 L105.829727,12.2271429 L105.829727,12.1692857 C105.906778,10.5107143 105.405945,9.06428571 104.385018,7.98428571 C103.113674,6.63428571 101.071819,5.92071429 98.4906064,5.90142857 L98.4135553,5.90142857 C93.6171225,5.90142857 90.7277051,8.04214286 90.6891795,11.6292857 C90.6699168,15.1971429 93.9445898,16.3928571 95.9093936,17.0871429 L96.1983353,17.2028571 C96.8532699,17.4342857 97.469679,17.6464286 98.0090369,17.8392857 C100.667301,18.765 102.266112,19.3242857 102.3239,20.7321429 C102.343163,21.465 102.131272,22.0628571 101.688228,22.5257143 C101.052556,23.1814286 99.9353151,23.5092857 98.4520809,23.49 C96.8147444,23.49 95.5626635,23.0657143 94.8499405,22.2942857 C94.3298454,21.7157143 94.1179548,20.9828571 94.1950059,20.0957143 L94.1950059,20.0378571 L94.1372176,20.0185714 C92.9429251,19.7871429 91.7293698,19.8064286 90.5350773,20.0764286 L90.4965517,20.0957143 L90.4965517,20.1535714 C90.4002378,21.7542857 90.8818074,23.1814286 91.9219976,24.2807143 C93.308918,25.7657143 95.5819263,26.5371429 98.5098692,26.5178571 C101.380024,26.5178571 106.099405,25.7464286 106.137931,20.7321429 C106.080143,17.3957143 103.229251,16.3157143 100.474673,15.255 Z M114.748395,14.5221429 C117.117717,14.5221429 117.676338,16.065 117.791914,16.9714286 L117.791914,17.0292857 L117.849703,17.0292857 C118.947681,17.2028571 119.987872,17.1257143 120.989536,16.8364286 L121.047325,16.8171429 L121.047325,16.7592857 C120.951011,15.3707143 120.353864,14.1171429 119.371463,13.2107143 C118.254221,12.1885714 116.65541,11.6292857 114.767658,11.6292857 C110.260166,11.6292857 107.775268,14.2714286 107.775268,19.0735714 C107.775268,23.8564286 110.240904,26.4985714 114.709869,26.4985714 C116.636147,26.4985714 118.254221,25.9392857 119.390725,24.8785714 C120.334602,23.9914286 120.912485,22.7957143 121.028062,21.5035714 L121.028062,21.4457143 L120.970273,21.4264286 C120.026397,21.0985714 118.986207,21.0407143 117.849703,21.2335714 L117.811177,21.2335714 L117.811177,21.2721429 C117.502973,23.4321429 115.403329,23.5864286 114.767658,23.5864286 C112.340547,23.5864286 111.204043,22.14 111.204043,19.035 C111.18478,15.9685714 112.321284,14.5221429 114.748395,14.5221429 Z M129.580737,11.6485714 C125.150297,11.6485714 122.703924,14.2907143 122.703924,19.0928571 C122.703924,23.8757143 125.150297,26.5178571 129.580737,26.5178571 C134.011177,26.5178571 136.457551,23.8757143 136.457551,19.0928571 C136.457551,14.2907143 134.011177,11.6485714 129.580737,11.6485714 Z M133.105826,19.1121429 C133.105826,22.1785714 131.950059,23.6635714 129.580737,23.6635714 C127.211415,23.6635714 126.055648,22.1785714 126.055648,19.1121429 C126.055648,15.9878571 127.172889,14.5221429 129.580737,14.5221429 C131.950059,14.5221429 133.105826,16.0264286 133.105826,19.1121429 Z M147.552913,12.285 L147.495125,12.3042857 L147.495125,22.1785714 C146.377883,23.1428571 145.356956,23.5671429 144.181926,23.5671429 C142.525327,23.5671429 141.812604,22.6221429 141.812604,20.385 L141.812604,12.285 L141.754816,12.2657143 C140.637574,11.9957143 139.50107,11.9957143 138.364566,12.2657143 L138.306778,12.285 L138.306778,21.1757143 C138.306778,24.5507143 140.117479,26.4985714 143.295838,26.4985714 C144.990963,26.4985714 146.474197,25.8428571 148.073008,24.3771429 L148.400476,25.92 L148.439001,25.9392857 C149.248038,26.1514286 150.0956,26.1514286 150.904637,25.9392857 L150.962426,25.92 L150.962426,12.285 L150.904637,12.2657143 C149.825922,11.9957143 148.689417,11.9957143 147.552913,12.285 Z M161.634007,23.2778571 L161.614744,23.22 L161.556956,23.2392857 C160.208561,23.5478571 159.418787,23.5285714 158.95648,23.1621429 C158.571225,22.8535714 158.39786,22.3135714 158.39786,21.465 L158.39786,15.1392857 L161.133175,15.1392857 L161.152438,15.0814286 C161.345065,14.1557143 161.345065,13.2107143 161.152438,12.2657143 L161.133175,12.2078571 L158.39786,12.2078571 L158.39786,8.46642857 L158.340071,8.44714286 C157.22283,8.19642857 156.086326,8.19642857 154.969084,8.44714286 L154.911296,8.46642857 L154.930559,12.2078571 L153.196908,12.2078571 L153.177646,12.2657143 C152.965755,13.1914286 152.965755,14.1557143 153.177646,15.0814286 L153.196908,15.1392857 L154.930559,15.1392857 L154.949822,21.2142857 C154.949822,22.9114286 155.046136,24.6278571 156.221165,25.6114286 C156.856837,26.1321429 157.781451,26.4021429 158.975743,26.4021429 C159.707729,26.4021429 160.555291,26.3057143 161.537693,26.1128571 L161.576219,26.1128571 L161.595482,26.0742857 C161.865161,25.1678571 161.884423,24.2228571 161.634007,23.2778571 Z" id="Shape" fill="#2A3B47"></path>
                        <path d="M1.90701546,18.7457143 L11.2687277,9.37285714 C12.482283,8.17714286 13.2335315,6.49928571 13.2335315,4.66714286 C13.2335315,2.85428571 12.5015458,1.19571429 11.3265161,0 L1.9648038,9.37285714 C0.751248514,10.5685714 0,12.2464286 0,14.0785714 C0,15.9107143 0.731985731,17.55 1.90701546,18.7457143 Z M24.5793103,13.2685714 L15.2175981,22.6414286 C14.0040428,23.8371429 13.2527943,25.515 13.2527943,27.3471429 C13.2527943,29.16 13.98478,30.8185714 15.1598098,32.0142857 L24.521522,22.6414286 C25.7350773,21.4457143 26.4863258,19.7678571 26.4863258,17.9357143 C26.4863258,16.1035714 25.7543401,14.4642857 24.5793103,13.2685714 Z M24.521522,9.39214286 C25.7350773,8.19642857 26.4863258,6.51857143 26.4863258,4.68642857 C26.4863258,2.87357143 25.7543401,1.215 24.5793103,0.0192857143 L1.9648038,22.6414286 C0.751248514,23.8564286 0,25.515 0,27.3664286 C0,29.1792857 0.731985731,30.8378571 1.90701546,32.0335714 L24.521522,9.39214286 Z" id="Shape" fill="#3197D6"></path>
                    </g>
                </g>
            </g>
        </g>
    </g>
</svg>